<svg xmlns="http://www.w3.org/2000/svg"><path d="M30.276 11.974h-4.681v-1.583h3.767l1.26-2.181-1.26-2.181h-3.767V4.445h4.681L32.45 8.21zm-22.972 0H2.623L.449 8.21l2.174-3.765h4.681v1.583H3.537L2.277 8.21l1.26 2.181h3.767zM20.56 4.851h-3.65v2.533h3.65z"/><path d="M20.56 4.851h-3.65v2.533h3.65zM15.996 4.851h-3.65v2.533h3.65zM20.57 11.975l-8.233-.023V8.45h1.583v1.923l5.066.014V8.45h1.583zM16.453 24.196l-3.764-2.174v-4.681h1.583v3.767l2.181 1.26 2.181-1.26v-3.767h1.584v4.681z"/><path d="M15.995 4.851h-3.648v2.533h3.648z"/><path d="M20.103 14.537h-7.307L9.143 8.21l3.653-6.328h7.307l3.653 6.328zm8.166-7.655c-.42 0-.815.199-1.065.536h-2.077L21.017.3h-9.135l-4.11 7.12h-1.91a1.325 1.325 0 00-1.066-.537c-1.77 0-1.77 2.657 0 2.656.42 0 .815-.199 1.065-.537h1.91l4.111 7.12h9.135L25.127 9h2.077a1.328 1.328 0 101.065-2.12"/></svg>