<svg xmlns="http://www.w3.org/2000/svg" >
  <path d="M194.714 78.28h-30.187V68.072h24.292l8.122-14.065-8.122-14.066h-24.292V29.733h30.187l14.014 24.274zM46.586 78.28H16.4L2.385 54.007 16.4 29.733h30.186V39.94H22.294l-8.12 14.066 8.12 14.065h24.292z" fill="#000000"/>
  <path d="M132.06 32.351h-23.528v16.327h23.529z"/>
  <path d="M132.06 32.351h-23.528v16.327h23.529z" fill="#000000"/>
  <path d="M102.63 32.351H79.1v16.327h23.53z"/>
  <path d="M102.63 32.351H79.1v16.327h23.53zM132.122 78.284l-53.084-.145V55.558h10.209v12.4l32.667.09v-12.49h10.208z" fill="#000000"/>
  <path d="M129.114 94.808H82l-23.556-40.8L82 13.204h47.114l23.556 40.802zm52.66-49.366a8.544 8.544 0 0 0-6.867 3.46h-13.396L135.008 2.998H76.107L49.602 48.903h-12.32a8.544 8.544 0 0 0-6.868-3.461 8.565 8.565 0 0 0 0 17.13 8.542 8.542 0 0 0 6.867-3.461h12.321l26.505 45.906h58.9l26.504-45.906h13.396a8.544 8.544 0 0 0 6.867 3.46 8.565 8.565 0 0 0 8.565-8.564 8.565 8.565 0 0 0-8.565-8.565M105.58 157.087l-24.273-14.015v-30.187h10.208v24.293l14.065 8.12 14.066-8.12v-24.293h10.208v30.187z" fill="#000000"/>
</svg>