<svg id="Layer_1" data-name="Layer 1" xmlns="http://www.w3.org/2000/svg" viewBox="0 0 286.48 213.93"><defs><style>.cls-1{fill:#1d1d1b;}</style></defs><title>logo1</title><polygon class="cls-1" points="267.02 104.52 225.11 104.52 225.11 90.35 258.84 90.35 270.12 70.82 258.84 51.29 225.11 51.29 225.11 37.12 267.02 37.12 286.48 70.82 267.02 104.52"/><polygon class="cls-1" points="61.37 104.52 19.46 104.52 0 70.82 19.46 37.12 61.37 37.12 61.37 51.29 27.64 51.29 16.37 70.82 27.64 90.35 61.37 90.35 61.37 104.52"/><rect x="147.37" y="40.75" width="32.67" height="22.67"/><polygon class="cls-1" points="180.04 40.75 147.37 40.75 147.37 63.42 180.04 63.42 180.04 40.75 180.04 40.75"/><rect x="106.51" y="40.75" width="32.67" height="22.67"/><polygon class="cls-1" points="139.18 40.75 106.51 40.75 106.51 63.42 139.18 63.42 139.18 40.75 139.18 40.75"/><polygon class="cls-1" points="180.12 104.53 106.42 104.32 106.42 72.97 120.6 72.97 120.6 90.19 165.95 90.31 165.95 72.97 180.12 72.97 180.12 104.53"/><path class="cls-1" d="M261.89,82.33a11.84,11.84,0,0,0-9.53,4.8h-18.6L197,23.4H115.18L78.39,87.13H61.28a11.89,11.89,0,1,0,0,14.18H78.39L115.18,165H197l36.8-63.73h18.6a11.89,11.89,0,1,0,9.53-19Zm-73.11,68.54H123.37L90.66,94.22l32.71-56.65h65.41l32.7,56.65Z" transform="translate(-12.83 -23.4)"/><polygon class="cls-1" points="143.27 213.93 109.57 194.47 109.57 152.56 123.75 152.56 123.75 186.29 143.27 197.57 162.8 186.29 162.8 152.56 176.97 152.56 176.97 194.47 143.27 213.93"/></svg>