solid ASCII
  facet normal -0.000000e+00 -1.000000e+00 -0.000000e+00
    outer loop
      vertex   -8.500000e+00 3.330000e+01 1.770000e+02
      vertex   -1.145000e+01 3.330000e+01 1.770000e+02
      vertex   -8.500000e+00 3.330000e+01 1.690000e+02
    endloop
  endfacet
  facet normal 0.000000e+00 -1.000000e+00 0.000000e+00
    outer loop
      vertex   -8.500000e+00 3.330000e+01 1.690000e+02
      vertex   -1.145000e+01 3.330000e+01 1.770000e+02
      vertex   -1.145000e+01 3.330000e+01 1.690000e+02
    endloop
  endfacet
  facet normal 1.000000e+00 -0.000000e+00 0.000000e+00
    outer loop
      vertex   -8.500000e+00 3.330000e+01 1.770000e+02
      vertex   -8.500000e+00 3.330000e+01 1.690000e+02
      vertex   -8.500000e+00 3.330280e+01 1.770000e+02
    endloop
  endfacet
  facet normal 1.000000e+00 0.000000e+00 0.000000e+00
    outer loop
      vertex   -8.500000e+00 3.330280e+01 1.770000e+02
      vertex   -8.500000e+00 3.330000e+01 1.690000e+02
      vertex   -8.500000e+00 3.330280e+01 1.690000e+02
    endloop
  endfacet
  facet normal -0.000000e+00 -1.000000e+00 -0.000000e+00
    outer loop
      vertex   8.500000e+00 3.330280e+01 1.770000e+02
      vertex   -8.500000e+00 3.330280e+01 1.770000e+02
      vertex   8.500000e+00 3.330280e+01 1.690000e+02
    endloop
  endfacet
  facet normal 0.000000e+00 -1.000000e+00 0.000000e+00
    outer loop
      vertex   8.500000e+00 3.330280e+01 1.690000e+02
      vertex   -8.500000e+00 3.330280e+01 1.770000e+02
      vertex   -8.500000e+00 3.330280e+01 1.690000e+02
    endloop
  endfacet
  facet normal -1.000000e+00 6.341743e-13 0.000000e+00
    outer loop
      vertex   8.500000e+00 3.330280e+01 1.770000e+02
      vertex   8.500000e+00 3.330280e+01 1.690000e+02
      vertex   8.500000e+00 3.330000e+01 1.770000e+02
    endloop
  endfacet
  facet normal -1.000000e+00 6.341743e-13 0.000000e+00
    outer loop
      vertex   8.500000e+00 3.330000e+01 1.770000e+02
      vertex   8.500000e+00 3.330280e+01 1.690000e+02
      vertex   8.500000e+00 3.330000e+01 1.690000e+02
    endloop
  endfacet
  facet normal -0.000000e+00 -1.000000e+00 -0.000000e+00
    outer loop
      vertex   1.143555e+01 3.330000e+01 1.770000e+02
      vertex   8.500000e+00 3.330000e+01 1.770000e+02
      vertex   1.143555e+01 3.330000e+01 1.690000e+02
    endloop
  endfacet
  facet normal 0.000000e+00 -1.000000e+00 0.000000e+00
    outer loop
      vertex   1.143555e+01 3.330000e+01 1.690000e+02
      vertex   8.500000e+00 3.330000e+01 1.770000e+02
      vertex   8.500000e+00 3.330000e+01 1.690000e+02
    endloop
  endfacet
  facet normal -1.000000e+00 0.000000e+00 -4.440892e-16
    outer loop
      vertex   1.143555e+01 2.210000e+01 1.770000e+02
      vertex   1.143555e+01 3.330000e+01 1.770000e+02
      vertex   1.143555e+01 2.210000e+01 1.690000e+02
    endloop
  endfacet
  facet normal -1.000000e+00 0.000000e+00 -4.440892e-16
    outer loop
      vertex   1.143555e+01 2.210000e+01 1.690000e+02
      vertex   1.143555e+01 3.330000e+01 1.770000e+02
      vertex   1.143555e+01 3.330000e+01 1.690000e+02
    endloop
  endfacet
  facet normal -0.000000e+00 -1.000000e+00 -0.000000e+00
    outer loop
      vertex   1.960000e+01 2.210000e+01 1.770000e+02
      vertex   1.143555e+01 2.210000e+01 1.770000e+02
      vertex   1.960000e+01 2.210000e+01 1.690000e+02
    endloop
  endfacet
  facet normal 0.000000e+00 -1.000000e+00 0.000000e+00
    outer loop
      vertex   1.960000e+01 2.210000e+01 1.690000e+02
      vertex   1.143555e+01 2.210000e+01 1.770000e+02
      vertex   1.143555e+01 2.210000e+01 1.690000e+02
    endloop
  endfacet
  facet normal -1.000000e+00 0.000000e+00 0.000000e+00
    outer loop
      vertex   1.960000e+01 7.800000e+00 1.770000e+02
      vertex   1.960000e+01 2.210000e+01 1.770000e+02
      vertex   1.960000e+01 7.800000e+00 1.690000e+02
    endloop
  endfacet
  facet normal -1.000000e+00 0.000000e+00 0.000000e+00
    outer loop
      vertex   1.960000e+01 7.800000e+00 1.690000e+02
      vertex   1.960000e+01 2.210000e+01 1.770000e+02
      vertex   1.960000e+01 2.210000e+01 1.690000e+02
    endloop
  endfacet
  facet normal 0.000000e+00 1.000000e+00 0.000000e+00
    outer loop
      vertex   1.960000e+01 7.800000e+00 1.770000e+02
      vertex   1.960000e+01 7.800000e+00 1.690000e+02
      vertex   1.949305e+01 7.800000e+00 1.770000e+02
    endloop
  endfacet
  facet normal 0.000000e+00 1.000000e+00 0.000000e+00
    outer loop
      vertex   1.949305e+01 7.800000e+00 1.770000e+02
      vertex   1.960000e+01 7.800000e+00 1.690000e+02
      vertex   1.949305e+01 7.800000e+00 1.690000e+02
    endloop
  endfacet
  facet normal -1.000000e+00 0.000000e+00 -4.440892e-16
    outer loop
      vertex   1.949305e+01 5.213906e+00 1.770000e+02
      vertex   1.949305e+01 7.800000e+00 1.770000e+02
      vertex   1.949305e+01 5.213906e+00 1.690000e+02
    endloop
  endfacet
  facet normal -1.000000e+00 0.000000e+00 -4.440892e-16
    outer loop
      vertex   1.949305e+01 5.213906e+00 1.690000e+02
      vertex   1.949305e+01 7.800000e+00 1.770000e+02
      vertex   1.949305e+01 7.800000e+00 1.690000e+02
    endloop
  endfacet
  facet normal -8.944272e-01 -4.472136e-01 -3.972055e-16
    outer loop
      vertex   1.949305e+01 5.213906e+00 1.770000e+02
      vertex   1.949305e+01 5.213906e+00 1.690000e+02
      vertex   1.960000e+01 5.000000e+00 1.770000e+02
    endloop
  endfacet
  facet normal -8.944272e-01 -4.472136e-01 -0.000000e+00
    outer loop
      vertex   1.960000e+01 5.000000e+00 1.770000e+02
      vertex   1.949305e+01 5.213906e+00 1.690000e+02
      vertex   1.960000e+01 5.000000e+00 1.690000e+02
    endloop
  endfacet
  facet normal -0.000000e+00 -1.000000e+00 -0.000000e+00
    outer loop
      vertex   2.100000e+01 5.000000e+00 1.770000e+02
      vertex   1.960000e+01 5.000000e+00 1.770000e+02
      vertex   2.100000e+01 5.000000e+00 1.690000e+02
    endloop
  endfacet
  facet normal 0.000000e+00 -1.000000e+00 0.000000e+00
    outer loop
      vertex   2.100000e+01 5.000000e+00 1.690000e+02
      vertex   1.960000e+01 5.000000e+00 1.770000e+02
      vertex   1.960000e+01 5.000000e+00 1.690000e+02
    endloop
  endfacet
  facet normal 1.000000e+00 0.000000e+00 0.000000e+00
    outer loop
      vertex   2.100000e+01 2.350000e+01 1.770000e+02
      vertex   2.100000e+01 5.000000e+00 1.770000e+02
      vertex   2.100000e+01 2.350000e+01 1.690000e+02
    endloop
  endfacet
  facet normal 1.000000e+00 0.000000e+00 0.000000e+00
    outer loop
      vertex   2.100000e+01 2.350000e+01 1.690000e+02
      vertex   2.100000e+01 5.000000e+00 1.770000e+02
      vertex   2.100000e+01 5.000000e+00 1.690000e+02
    endloop
  endfacet
  facet normal -0.000000e+00 1.000000e+00 0.000000e+00
    outer loop
      vertex   1.343555e+01 2.350000e+01 1.770000e+02
      vertex   2.100000e+01 2.350000e+01 1.770000e+02
      vertex   1.343555e+01 2.350000e+01 1.690000e+02
    endloop
  endfacet
  facet normal 0.000000e+00 1.000000e+00 0.000000e+00
    outer loop
      vertex   1.343555e+01 2.350000e+01 1.690000e+02
      vertex   2.100000e+01 2.350000e+01 1.770000e+02
      vertex   2.100000e+01 2.350000e+01 1.690000e+02
    endloop
  endfacet
  facet normal 1.000000e+00 0.000000e+00 0.000000e+00
    outer loop
      vertex   1.343555e+01 3.530000e+01 1.770000e+02
      vertex   1.343555e+01 2.350000e+01 1.770000e+02
      vertex   1.343555e+01 3.530000e+01 1.690000e+02
    endloop
  endfacet
  facet normal 1.000000e+00 0.000000e+00 0.000000e+00
    outer loop
      vertex   1.343555e+01 3.530000e+01 1.690000e+02
      vertex   1.343555e+01 2.350000e+01 1.770000e+02
      vertex   1.343555e+01 2.350000e+01 1.690000e+02
    endloop
  endfacet
  facet normal -0.000000e+00 1.000000e+00 0.000000e+00
    outer loop
      vertex   -1.345000e+01 3.530000e+01 1.770000e+02
      vertex   1.343555e+01 3.530000e+01 1.770000e+02
      vertex   -1.345000e+01 3.530000e+01 1.690000e+02
    endloop
  endfacet
  facet normal 0.000000e+00 1.000000e+00 0.000000e+00
    outer loop
      vertex   -1.345000e+01 3.530000e+01 1.690000e+02
      vertex   1.343555e+01 3.530000e+01 1.770000e+02
      vertex   1.343555e+01 3.530000e+01 1.690000e+02
    endloop
  endfacet
  facet normal -1.000000e+00 1.505387e-16 0.000000e+00
    outer loop
      vertex   -1.345000e+01 2.350000e+01 1.770000e+02
      vertex   -1.345000e+01 3.530000e+01 1.770000e+02
      vertex   -1.345000e+01 2.350000e+01 1.690000e+02
    endloop
  endfacet
  facet normal -1.000000e+00 1.505387e-16 0.000000e+00
    outer loop
      vertex   -1.345000e+01 2.350000e+01 1.690000e+02
      vertex   -1.345000e+01 3.530000e+01 1.770000e+02
      vertex   -1.345000e+01 3.530000e+01 1.690000e+02
    endloop
  endfacet
  facet normal -0.000000e+00 1.000000e+00 0.000000e+00
    outer loop
      vertex   -2.100000e+01 2.350000e+01 1.770000e+02
      vertex   -1.345000e+01 2.350000e+01 1.770000e+02
      vertex   -2.100000e+01 2.350000e+01 1.690000e+02
    endloop
  endfacet
  facet normal 0.000000e+00 1.000000e+00 0.000000e+00
    outer loop
      vertex   -2.100000e+01 2.350000e+01 1.690000e+02
      vertex   -1.345000e+01 2.350000e+01 1.770000e+02
      vertex   -1.345000e+01 2.350000e+01 1.690000e+02
    endloop
  endfacet
  facet normal -1.000000e+00 0.000000e+00 0.000000e+00
    outer loop
      vertex   -2.100000e+01 5.000000e+00 1.770000e+02
      vertex   -2.100000e+01 2.350000e+01 1.770000e+02
      vertex   -2.100000e+01 5.000000e+00 1.690000e+02
    endloop
  endfacet
  facet normal -1.000000e+00 0.000000e+00 0.000000e+00
    outer loop
      vertex   -2.100000e+01 5.000000e+00 1.690000e+02
      vertex   -2.100000e+01 2.350000e+01 1.770000e+02
      vertex   -2.100000e+01 2.350000e+01 1.690000e+02
    endloop
  endfacet
  facet normal -0.000000e+00 -1.000000e+00 -0.000000e+00
    outer loop
      vertex   -1.960000e+01 5.000000e+00 1.770000e+02
      vertex   -2.100000e+01 5.000000e+00 1.770000e+02
      vertex   -1.960000e+01 5.000000e+00 1.690000e+02
    endloop
  endfacet
  facet normal 0.000000e+00 -1.000000e+00 0.000000e+00
    outer loop
      vertex   -1.960000e+01 5.000000e+00 1.690000e+02
      vertex   -2.100000e+01 5.000000e+00 1.770000e+02
      vertex   -2.100000e+01 5.000000e+00 1.690000e+02
    endloop
  endfacet
  facet normal 8.944272e-01 -4.472136e-01 0.000000e+00
    outer loop
      vertex   -1.820000e+01 7.800000e+00 1.770000e+02
      vertex   -1.960000e+01 5.000000e+00 1.770000e+02
      vertex   -1.820000e+01 7.800000e+00 1.690000e+02
    endloop
  endfacet
  facet normal 8.944272e-01 -4.472136e-01 0.000000e+00
    outer loop
      vertex   -1.820000e+01 7.800000e+00 1.690000e+02
      vertex   -1.960000e+01 5.000000e+00 1.770000e+02
      vertex   -1.960000e+01 5.000000e+00 1.690000e+02
    endloop
  endfacet
  facet normal -0.000000e+00 1.000000e+00 0.000000e+00
    outer loop
      vertex   -1.960000e+01 7.800000e+00 1.770000e+02
      vertex   -1.820000e+01 7.800000e+00 1.770000e+02
      vertex   -1.960000e+01 7.800000e+00 1.690000e+02
    endloop
  endfacet
  facet normal 0.000000e+00 1.000000e+00 0.000000e+00
    outer loop
      vertex   -1.960000e+01 7.800000e+00 1.690000e+02
      vertex   -1.820000e+01 7.800000e+00 1.770000e+02
      vertex   -1.820000e+01 7.800000e+00 1.690000e+02
    endloop
  endfacet
  facet normal 1.000000e+00 2.484415e-16 0.000000e+00
    outer loop
      vertex   -1.960000e+01 2.210000e+01 1.770000e+02
      vertex   -1.960000e+01 7.800000e+00 1.770000e+02
      vertex   -1.960000e+01 2.210000e+01 1.690000e+02
    endloop
  endfacet
  facet normal 1.000000e+00 2.484415e-16 0.000000e+00
    outer loop
      vertex   -1.960000e+01 2.210000e+01 1.690000e+02
      vertex   -1.960000e+01 7.800000e+00 1.770000e+02
      vertex   -1.960000e+01 7.800000e+00 1.690000e+02
    endloop
  endfacet
  facet normal -0.000000e+00 -1.000000e+00 -0.000000e+00
    outer loop
      vertex   -1.145000e+01 2.210000e+01 1.770000e+02
      vertex   -1.960000e+01 2.210000e+01 1.770000e+02
      vertex   -1.145000e+01 2.210000e+01 1.690000e+02
    endloop
  endfacet
  facet normal 0.000000e+00 -1.000000e+00 0.000000e+00
    outer loop
      vertex   -1.145000e+01 2.210000e+01 1.690000e+02
      vertex   -1.960000e+01 2.210000e+01 1.770000e+02
      vertex   -1.960000e+01 2.210000e+01 1.690000e+02
    endloop
  endfacet
  facet normal 1.000000e+00 -1.586033e-16 0.000000e+00
    outer loop
      vertex   -1.145000e+01 3.330000e+01 1.770000e+02
      vertex   -1.145000e+01 2.210000e+01 1.770000e+02
      vertex   -1.145000e+01 3.330000e+01 1.690000e+02
    endloop
  endfacet
  facet normal 1.000000e+00 -1.586033e-16 0.000000e+00
    outer loop
      vertex   -1.145000e+01 3.330000e+01 1.690000e+02
      vertex   -1.145000e+01 2.210000e+01 1.770000e+02
      vertex   -1.145000e+01 2.210000e+01 1.690000e+02
    endloop
  endfacet
  facet normal 0.000000e+00 0.000000e+00 -1.000000e+00
    outer loop
      vertex   -1.145000e+01 2.210000e+01 1.690000e+02
      vertex   -1.345000e+01 2.350000e+01 1.690000e+02
      vertex   -1.145000e+01 3.330000e+01 1.690000e+02
    endloop
  endfacet
  facet normal -0.000000e+00 0.000000e+00 -1.000000e+00
    outer loop
      vertex   -1.145000e+01 3.330000e+01 1.690000e+02
      vertex   -1.345000e+01 2.350000e+01 1.690000e+02
      vertex   -1.345000e+01 3.530000e+01 1.690000e+02
    endloop
  endfacet
  facet normal 0.000000e+00 0.000000e+00 -1.000000e+00
    outer loop
      vertex   -1.145000e+01 3.330000e+01 1.690000e+02
      vertex   -1.345000e+01 3.530000e+01 1.690000e+02
      vertex   -8.500000e+00 3.330280e+01 1.690000e+02
    endloop
  endfacet
  facet normal 0.000000e+00 0.000000e+00 -1.000000e+00
    outer loop
      vertex   -8.500000e+00 3.330280e+01 1.690000e+02
      vertex   -1.345000e+01 3.530000e+01 1.690000e+02
      vertex   1.343555e+01 3.530000e+01 1.690000e+02
    endloop
  endfacet
  facet normal 0.000000e+00 0.000000e+00 -1.000000e+00
    outer loop
      vertex   -8.500000e+00 3.330280e+01 1.690000e+02
      vertex   1.343555e+01 3.530000e+01 1.690000e+02
      vertex   8.500000e+00 3.330280e+01 1.690000e+02
    endloop
  endfacet
  facet normal 0.000000e+00 0.000000e+00 -1.000000e+00
    outer loop
      vertex   8.500000e+00 3.330280e+01 1.690000e+02
      vertex   1.343555e+01 3.530000e+01 1.690000e+02
      vertex   1.143555e+01 3.330000e+01 1.690000e+02
    endloop
  endfacet
  facet normal 0.000000e+00 -0.000000e+00 -1.000000e+00
    outer loop
      vertex   8.500000e+00 3.330280e+01 1.690000e+02
      vertex   1.143555e+01 3.330000e+01 1.690000e+02
      vertex   8.500000e+00 3.330000e+01 1.690000e+02
    endloop
  endfacet
  facet normal 0.000000e+00 0.000000e+00 -1.000000e+00
    outer loop
      vertex   -1.145000e+01 2.210000e+01 1.690000e+02
      vertex   -1.960000e+01 2.210000e+01 1.690000e+02
      vertex   -1.345000e+01 2.350000e+01 1.690000e+02
    endloop
  endfacet
  facet normal -0.000000e+00 0.000000e+00 -1.000000e+00
    outer loop
      vertex   -1.345000e+01 2.350000e+01 1.690000e+02
      vertex   -1.960000e+01 2.210000e+01 1.690000e+02
      vertex   -2.100000e+01 2.350000e+01 1.690000e+02
    endloop
  endfacet
  facet normal 0.000000e+00 0.000000e+00 -1.000000e+00
    outer loop
      vertex   -2.100000e+01 2.350000e+01 1.690000e+02
      vertex   -1.960000e+01 2.210000e+01 1.690000e+02
      vertex   -1.960000e+01 7.800000e+00 1.690000e+02
    endloop
  endfacet
  facet normal 0.000000e+00 0.000000e+00 -1.000000e+00
    outer loop
      vertex   -2.100000e+01 2.350000e+01 1.690000e+02
      vertex   -1.960000e+01 7.800000e+00 1.690000e+02
      vertex   -2.100000e+01 5.000000e+00 1.690000e+02
    endloop
  endfacet
  facet normal 0.000000e+00 0.000000e+00 -1.000000e+00
    outer loop
      vertex   -2.100000e+01 5.000000e+00 1.690000e+02
      vertex   -1.960000e+01 7.800000e+00 1.690000e+02
      vertex   -1.960000e+01 5.000000e+00 1.690000e+02
    endloop
  endfacet
  facet normal 0.000000e+00 0.000000e+00 -1.000000e+00
    outer loop
      vertex   -1.960000e+01 5.000000e+00 1.690000e+02
      vertex   -1.960000e+01 7.800000e+00 1.690000e+02
      vertex   -1.820000e+01 7.800000e+00 1.690000e+02
    endloop
  endfacet
  facet normal 0.000000e+00 -0.000000e+00 -1.000000e+00
    outer loop
      vertex   1.343555e+01 3.530000e+01 1.690000e+02
      vertex   1.343555e+01 2.350000e+01 1.690000e+02
      vertex   1.143555e+01 3.330000e+01 1.690000e+02
    endloop
  endfacet
  facet normal 0.000000e+00 0.000000e+00 -1.000000e+00
    outer loop
      vertex   1.143555e+01 3.330000e+01 1.690000e+02
      vertex   1.343555e+01 2.350000e+01 1.690000e+02
      vertex   1.143555e+01 2.210000e+01 1.690000e+02
    endloop
  endfacet
  facet normal 0.000000e+00 0.000000e+00 -1.000000e+00
    outer loop
      vertex   1.143555e+01 2.210000e+01 1.690000e+02
      vertex   1.343555e+01 2.350000e+01 1.690000e+02
      vertex   1.960000e+01 2.210000e+01 1.690000e+02
    endloop
  endfacet
  facet normal 0.000000e+00 0.000000e+00 -1.000000e+00
    outer loop
      vertex   1.960000e+01 2.210000e+01 1.690000e+02
      vertex   1.343555e+01 2.350000e+01 1.690000e+02
      vertex   2.100000e+01 2.350000e+01 1.690000e+02
    endloop
  endfacet
  facet normal 0.000000e+00 0.000000e+00 -1.000000e+00
    outer loop
      vertex   1.960000e+01 2.210000e+01 1.690000e+02
      vertex   2.100000e+01 2.350000e+01 1.690000e+02
      vertex   1.960000e+01 7.800000e+00 1.690000e+02
    endloop
  endfacet
  facet normal 0.000000e+00 0.000000e+00 -1.000000e+00
    outer loop
      vertex   1.960000e+01 7.800000e+00 1.690000e+02
      vertex   2.100000e+01 2.350000e+01 1.690000e+02
      vertex   2.100000e+01 5.000000e+00 1.690000e+02
    endloop
  endfacet
  facet normal 0.000000e+00 -0.000000e+00 -1.000000e+00
    outer loop
      vertex   1.960000e+01 7.800000e+00 1.690000e+02
      vertex   2.100000e+01 5.000000e+00 1.690000e+02
      vertex   1.949305e+01 5.213906e+00 1.690000e+02
    endloop
  endfacet
  facet normal 0.000000e+00 0.000000e+00 -1.000000e+00
    outer loop
      vertex   1.949305e+01 5.213906e+00 1.690000e+02
      vertex   2.100000e+01 5.000000e+00 1.690000e+02
      vertex   1.960000e+01 5.000000e+00 1.690000e+02
    endloop
  endfacet
  facet normal 0.000000e+00 0.000000e+00 -1.000000e+00
    outer loop
      vertex   1.949305e+01 5.213906e+00 1.690000e+02
      vertex   1.949305e+01 7.800000e+00 1.690000e+02
      vertex   1.960000e+01 7.800000e+00 1.690000e+02
    endloop
  endfacet
  facet normal 0.000000e+00 -0.000000e+00 -1.000000e+00
    outer loop
      vertex   -8.500000e+00 3.330280e+01 1.690000e+02
      vertex   -8.500000e+00 3.330000e+01 1.690000e+02
      vertex   -1.145000e+01 3.330000e+01 1.690000e+02
    endloop
  endfacet
  facet normal 0.000000e+00 0.000000e+00 1.000000e+00
    outer loop
      vertex   -1.960000e+01 2.210000e+01 1.770000e+02
      vertex   -1.145000e+01 2.210000e+01 1.770000e+02
      vertex   -1.345000e+01 2.350000e+01 1.770000e+02
    endloop
  endfacet
  facet normal -0.000000e+00 0.000000e+00 1.000000e+00
    outer loop
      vertex   -1.345000e+01 2.350000e+01 1.770000e+02
      vertex   -1.145000e+01 2.210000e+01 1.770000e+02
      vertex   -1.145000e+01 3.330000e+01 1.770000e+02
    endloop
  endfacet
  facet normal 0.000000e+00 0.000000e+00 1.000000e+00
    outer loop
      vertex   -1.345000e+01 2.350000e+01 1.770000e+02
      vertex   -1.145000e+01 3.330000e+01 1.770000e+02
      vertex   -1.345000e+01 3.530000e+01 1.770000e+02
    endloop
  endfacet
  facet normal 0.000000e+00 0.000000e+00 1.000000e+00
    outer loop
      vertex   -1.345000e+01 3.530000e+01 1.770000e+02
      vertex   -1.145000e+01 3.330000e+01 1.770000e+02
      vertex   -8.500000e+00 3.330280e+01 1.770000e+02
    endloop
  endfacet
  facet normal -0.000000e+00 0.000000e+00 1.000000e+00
    outer loop
      vertex   -1.345000e+01 3.530000e+01 1.770000e+02
      vertex   -8.500000e+00 3.330280e+01 1.770000e+02
      vertex   1.343555e+01 3.530000e+01 1.770000e+02
    endloop
  endfacet
  facet normal 0.000000e+00 0.000000e+00 1.000000e+00
    outer loop
      vertex   1.343555e+01 3.530000e+01 1.770000e+02
      vertex   -8.500000e+00 3.330280e+01 1.770000e+02
      vertex   8.500000e+00 3.330280e+01 1.770000e+02
    endloop
  endfacet
  facet normal 0.000000e+00 0.000000e+00 1.000000e+00
    outer loop
      vertex   1.343555e+01 3.530000e+01 1.770000e+02
      vertex   8.500000e+00 3.330280e+01 1.770000e+02
      vertex   1.143555e+01 3.330000e+01 1.770000e+02
    endloop
  endfacet
  facet normal 0.000000e+00 0.000000e+00 1.000000e+00
    outer loop
      vertex   1.143555e+01 3.330000e+01 1.770000e+02
      vertex   8.500000e+00 3.330280e+01 1.770000e+02
      vertex   8.500000e+00 3.330000e+01 1.770000e+02
    endloop
  endfacet
  facet normal 0.000000e+00 0.000000e+00 1.000000e+00
    outer loop
      vertex   -1.145000e+01 3.330000e+01 1.770000e+02
      vertex   -8.500000e+00 3.330000e+01 1.770000e+02
      vertex   -8.500000e+00 3.330280e+01 1.770000e+02
    endloop
  endfacet
  facet normal 0.000000e+00 0.000000e+00 1.000000e+00
    outer loop
      vertex   1.343555e+01 3.530000e+01 1.770000e+02
      vertex   1.143555e+01 3.330000e+01 1.770000e+02
      vertex   1.343555e+01 2.350000e+01 1.770000e+02
    endloop
  endfacet
  facet normal 0.000000e+00 0.000000e+00 1.000000e+00
    outer loop
      vertex   1.343555e+01 2.350000e+01 1.770000e+02
      vertex   1.143555e+01 3.330000e+01 1.770000e+02
      vertex   1.143555e+01 2.210000e+01 1.770000e+02
    endloop
  endfacet
  facet normal 0.000000e+00 0.000000e+00 1.000000e+00
    outer loop
      vertex   1.343555e+01 2.350000e+01 1.770000e+02
      vertex   1.143555e+01 2.210000e+01 1.770000e+02
      vertex   1.960000e+01 2.210000e+01 1.770000e+02
    endloop
  endfacet
  facet normal -0.000000e+00 0.000000e+00 1.000000e+00
    outer loop
      vertex   1.343555e+01 2.350000e+01 1.770000e+02
      vertex   1.960000e+01 2.210000e+01 1.770000e+02
      vertex   2.100000e+01 2.350000e+01 1.770000e+02
    endloop
  endfacet
  facet normal 0.000000e+00 0.000000e+00 1.000000e+00
    outer loop
      vertex   2.100000e+01 2.350000e+01 1.770000e+02
      vertex   1.960000e+01 2.210000e+01 1.770000e+02
      vertex   1.960000e+01 7.800000e+00 1.770000e+02
    endloop
  endfacet
  facet normal 0.000000e+00 0.000000e+00 1.000000e+00
    outer loop
      vertex   2.100000e+01 2.350000e+01 1.770000e+02
      vertex   1.960000e+01 7.800000e+00 1.770000e+02
      vertex   2.100000e+01 5.000000e+00 1.770000e+02
    endloop
  endfacet
  facet normal 0.000000e+00 0.000000e+00 1.000000e+00
    outer loop
      vertex   2.100000e+01 5.000000e+00 1.770000e+02
      vertex   1.960000e+01 7.800000e+00 1.770000e+02
      vertex   1.949305e+01 5.213906e+00 1.770000e+02
    endloop
  endfacet
  facet normal 0.000000e+00 0.000000e+00 1.000000e+00
    outer loop
      vertex   2.100000e+01 5.000000e+00 1.770000e+02
      vertex   1.949305e+01 5.213906e+00 1.770000e+02
      vertex   1.960000e+01 5.000000e+00 1.770000e+02
    endloop
  endfacet
  facet normal 0.000000e+00 0.000000e+00 1.000000e+00
    outer loop
      vertex   1.960000e+01 7.800000e+00 1.770000e+02
      vertex   1.949305e+01 7.800000e+00 1.770000e+02
      vertex   1.949305e+01 5.213906e+00 1.770000e+02
    endloop
  endfacet
  facet normal 0.000000e+00 0.000000e+00 1.000000e+00
    outer loop
      vertex   -1.345000e+01 2.350000e+01 1.770000e+02
      vertex   -2.100000e+01 2.350000e+01 1.770000e+02
      vertex   -1.960000e+01 2.210000e+01 1.770000e+02
    endloop
  endfacet
  facet normal 0.000000e+00 0.000000e+00 1.000000e+00
    outer loop
      vertex   -1.960000e+01 2.210000e+01 1.770000e+02
      vertex   -2.100000e+01 2.350000e+01 1.770000e+02
      vertex   -1.960000e+01 7.800000e+00 1.770000e+02
    endloop
  endfacet
  facet normal 0.000000e+00 0.000000e+00 1.000000e+00
    outer loop
      vertex   -1.960000e+01 7.800000e+00 1.770000e+02
      vertex   -2.100000e+01 2.350000e+01 1.770000e+02
      vertex   -2.100000e+01 5.000000e+00 1.770000e+02
    endloop
  endfacet
  facet normal 0.000000e+00 0.000000e+00 1.000000e+00
    outer loop
      vertex   -1.960000e+01 7.800000e+00 1.770000e+02
      vertex   -2.100000e+01 5.000000e+00 1.770000e+02
      vertex   -1.960000e+01 5.000000e+00 1.770000e+02
    endloop
  endfacet
  facet normal 0.000000e+00 0.000000e+00 1.000000e+00
    outer loop
      vertex   -1.960000e+01 5.000000e+00 1.770000e+02
      vertex   -1.820000e+01 7.800000e+00 1.770000e+02
      vertex   -1.960000e+01 7.800000e+00 1.770000e+02
    endloop
  endfacet
endsolid
